<?xml version="1.0" encoding="UTF-8"?>
<!DOCTYPE svg PUBLIC "-//W3C//DTD SVG 1.1//EN" "http://www.w3.org/Graphics/SVG/1.1/DTD/svg11.dtd">
<!-- Creator: CorelDRAW 2018 (64 Bit) -->
<svg xmlns="http://www.w3.org/2000/svg" xml:space="preserve" width="215.9mm" height="279.4mm" version="1.1" style="shape-rendering:geometricPrecision; text-rendering:geometricPrecision; image-rendering:optimizeQuality; fill-rule:evenodd; clip-rule:evenodd"
viewBox="0 0 21590 27940"
 xmlns:xlink="http://www.w3.org/1999/xlink"
 enable-background="new 20 0 57.6 19.5">
 <defs>
  <style type="text/css">
   <![CDATA[
    .fil1 {fill:#C57E6F}
    .fil0 {fill:#C57E6F;fill-rule:nonzero}
   ]]>
  </style>
 </defs>
 <g id="Capa_x0020_1">
  <metadata id="CorelCorpID_0Corel-Layer"/>
  <path class="fil0" d="M15370.54 8944.12c0,204.3 -168.87,369.82 -377.24,369.82 -208.37,0 -377.29,-165.52 -377.29,-369.82 0,-204.26 168.92,-369.78 377.29,-369.78 208.37,0 377.24,165.52 377.24,369.78z"/>
  <path class="fil0" d="M13291.01 10969.58c-187.53,0 -339.64,149.01 -339.64,332.9l0 184.46c-1.02,604.01 -159.02,1064.99 -483.19,1408.9 -318.24,337.58 -727.61,501.61 -1251.65,501.61 -538.24,0 -967.69,-168.71 -1312.87,-515.75 -347.57,-349.31 -516.48,-807.52 -516.48,-1400.74l0 -5003.03c-3.4,-1408.55 -1175.12,-2554.5 -2612.06,-2554.5 -16.51,0 -32.87,0.41 -49.23,0.98l-347.7 8.42c0,593.27 679.11,676.45 679.11,676.45 930.38,134.14 1648.5,921.75 1650.76,1870.18l0 5001.5c0,764.72 238.67,1392.35 709.36,1865.52 473.12,475.53 1078.37,716.66 1799.11,716.66 713.89,0 1302.84,-240.73 1750.43,-715.58 410.63,-435.57 632.21,-1011.2 660.35,-1712.23l3.3 0 0 -154.37 0 -118.25 0 -60.23c0,-183.89 -152.05,-332.9 -339.6,-332.9z"/>
  <path class="fil0" d="M13291.01 10969.58c-187.53,0 -339.64,149.01 -339.64,332.9l0 184.46c-1.02,604.01 -159.02,1064.99 -483.19,1408.9 -318.24,337.58 -727.61,501.61 -1251.65,501.61 -538.24,0 -967.69,-168.71 -1312.87,-515.75 -347.57,-349.31 -516.48,-807.52 -516.48,-1400.74l0 -5003.03c-3.4,-1408.55 -1175.12,-2554.5 -2612.06,-2554.5 -16.51,0 -32.87,0.41 -49.23,0.98l-347.7 8.42c0,593.27 679.11,676.45 679.11,676.45 930.38,134.14 1648.5,921.75 1650.76,1870.18l0 5001.5c0,764.72 238.67,1392.35 709.36,1865.52 473.12,475.53 1078.37,716.66 1799.11,716.66 713.89,0 1302.84,-240.73 1750.43,-715.58 410.63,-435.57 632.21,-1011.2 660.35,-1712.23l3.3 0 0 -154.37 0 -118.25 0 -60.23c0,-183.89 -152.05,-332.9 -339.6,-332.9z"/>
  <path class="fil0" d="M16155.55 6892.08c-19.65,-0.68 -39.31,-1.24 -59.05,-1.24 -1280.16,0 -2422.05,750.21 -2909.21,1911.18 -141.96,338.35 -219.73,694.29 -233.01,1059.44l-2.88 0 0 332.95c0,183.83 152.05,332.9 339.64,332.9 187.49,0 339.54,-149.07 339.54,-332.9l0 -220.66c0,-317.26 62.18,-626.35 184.75,-918.51 347.57,-828.34 1120.04,-1389.98 2012.47,-1484.56l0 3910.31c0,410.78 -42.45,803.87 -126.08,1168.19 -93.2,405.63 -239.64,784.46 -435.46,1125.99 -368.65,642.87 -903.23,1145.14 -1588.88,1492.85 -697.38,353.58 -1530.7,532.83 -2476.58,532.83 -946.64,0 -1785.78,-179.51 -2493.95,-533.7 -696.51,-348.17 -1241.69,-851.28 -1620.46,-1495.26 -381.78,-648.47 -575.33,-1419.25 -575.33,-2290.9l0 -6000.03 0.46 0c1.08,-104.53 -22.68,-678.66 -679.52,-678.66l-0.06 6678.69c0,990.02 224.16,1872.72 666.16,2623.54 445.49,757.3 1084.8,1348 1900.17,1755.68 804.64,402.35 1747.57,606.39 2802.53,606.39 1055.54,0 1993.79,-204.35 2788.59,-607.31 805.35,-408.35 1434.16,-999.88 1868.91,-1758 228.01,-397.87 398.27,-837.29 505.93,-1305.93 94.58,-412.26 142.63,-854.51 142.63,-1314.37l0 -4579.92 -351.31 -8.99z"/>
  <path class="fil0" d="M16155.55 6892.08c-19.65,-0.68 -39.31,-1.24 -59.05,-1.24 -1280.16,0 -2422.05,750.21 -2909.21,1911.18 -141.96,338.35 -219.73,694.29 -233.01,1059.44l-2.88 0 0 332.95c0,183.83 152.05,332.9 339.64,332.9 187.49,0 339.54,-149.07 339.54,-332.9l0 -220.66c0,-317.26 62.18,-626.35 184.75,-918.51 347.57,-828.34 1120.04,-1389.98 2012.47,-1484.56l0 3910.31c0,410.78 -42.45,803.87 -126.08,1168.19 -93.2,405.63 -239.64,784.46 -435.46,1125.99 -368.65,642.87 -903.23,1145.14 -1588.88,1492.85 -697.38,353.58 -1530.7,532.83 -2476.58,532.83 -946.64,0 -1785.78,-179.51 -2493.95,-533.7 -696.51,-348.17 -1241.69,-851.28 -1620.46,-1495.26 -381.78,-648.47 -575.33,-1419.25 -575.33,-2290.9l0 -6000.03 0.46 0c1.08,-104.53 -22.68,-678.66 -679.52,-678.66l-0.06 6678.69c0,990.02 224.16,1872.72 666.16,2623.54 445.49,757.3 1084.8,1348 1900.17,1755.68 804.64,402.35 1747.57,606.39 2802.53,606.39 1055.54,0 1993.79,-204.35 2788.59,-607.31 805.35,-408.35 1434.16,-999.88 1868.91,-1758 228.01,-397.87 398.27,-837.29 505.93,-1305.93 94.58,-412.26 142.63,-854.51 142.63,-1314.37l0 -4579.92 -351.31 -8.99z"/>
  <g id="_2013539965936">
   <path class="fil1" d="M4036.9 20694.65c-4.81,-22.33 -8.47,-44.76 -12.02,-67.31 -2.41,-10.71 -5.1,-25.04 -8.72,-34.56l-4.55 -11.11 0 -12.09c0,-12.5 -2.17,-26.9 -4.13,-39.47 -4.17,-17.98 -8.07,-37.79 -8.07,-56.15l0 -2904.27 269.26 0 0 2820.61c0,132.42 27.51,263.09 71.4,387.62 44.94,127.47 105.72,249.35 187.76,357.13l0.69 0.92c99.32,135.66 217.91,252.23 356.28,347.68 133.05,91.78 277.7,161.73 432.31,208.62 150.94,45.77 308.03,67.28 465.71,65.65 157.75,-1.63 313.84,-25.94 463.25,-76.95 152.72,-52.14 294.83,-129.13 423.43,-226.46 135.98,-102.92 247.16,-229.27 336.61,-374.26 71.12,-115.28 128.75,-239.77 165.58,-370.29 12.83,-45.45 24.32,-91.49 36.3,-137.19 6.84,-26.09 18.51,-62.95 22.37,-89.63l0 -2913.45 270.99 0 0 2844.5c0,85.72 -11.4,169.98 -31.29,253.32l-0.3 1.22c-20.54,78.83 -43.42,157.07 -69.09,234.37l-0.52 1.5c-70.68,195.75 -174.94,373.36 -313.21,528.79 -133.96,150.58 -290.93,277.38 -467.31,374.9 -178.13,98.5 -368.97,164.9 -569.61,199.71 -204.69,35.51 -412.47,34.37 -617.55,1.85 -161.07,-25.54 -315.72,-74.85 -461.84,-147.36 -144.46,-71.67 -278.7,-160.28 -399.9,-266.67 -120.94,-106.17 -225.48,-227.58 -312.49,-362.99 -83.77,-130.38 -149.85,-269.36 -192.34,-418.35 -9.03,-15 -13.19,-32.81 -16.33,-50.6 -6.01,-22.56 -9.51,-46.11 -12.67,-69.23zm6601.71 132.69c-65.65,10.99 -131.05,22.93 -195.6,34.7 -80.44,16.13 -161.74,23.41 -243.75,23.41l-61.47 0 0 -264.55 57.84 -3.42c239,-14.15 468.45,-72.64 680.06,-185.78 194.8,-104.16 361.48,-243.37 491.3,-422.38 127.5,-175.81 205.61,-374.75 238.06,-589.47 35.53,-235.17 0.15,-468.06 -80.22,-689.32 -79.39,-206.96 -203.98,-383.64 -367.33,-533.31 -162.45,-148.84 -350.4,-253.87 -562.48,-312.17 -26.91,-2.51 -61.77,-13.79 -85.54,-20.73 -16.44,-4.8 -47.83,-14.08 -64.62,-14.62 -18.05,0 -37.16,-3.58 -54.72,-8.15 -9.49,-1.6 -21.76,-3.8 -30.62,-3.8l-1258.78 0 0 4101.15 -283.18 0 0 -4381.17 1456.6 0c170.43,0 336.79,32.3 496.63,90.83 156.52,57.32 302.46,134.81 436.79,233.56 185.72,136.54 341.3,303.6 455.85,503.91 110.86,193.86 182.14,404.11 209.7,625.64 27.61,221.92 11.24,442.66 -46.94,658.71 -60.58,224.94 -169.23,426.08 -320.09,601.8 -87.02,106.19 -186.92,201.53 -299.98,279.67 -93.64,64.71 -191.24,123.66 -292.35,175.89l928.91 1211.16 -339.29 0 -864.78 -1111.56zm4620.7 -92.75c-107.56,52.6 -222.49,91.16 -338.55,120.01 -120.5,29.96 -245.89,43.77 -369.75,30.5l-54.92 -5.88 0 -257.9 57.4 -3.81c278.93,-18.53 542.77,-93.29 779.07,-244.82 235.18,-150.8 404.92,-363.61 528.52,-612.45 52.1,-104.92 86.74,-215.51 98.39,-332.2 12.12,-121.3 12.7,-244.05 5.05,-365.65 -9.46,-150.46 -54.26,-294.58 -123.79,-427.89 -77.29,-148.18 -177.5,-281.74 -295.53,-399.87 -118.67,-118.77 -254.78,-214.68 -405.18,-288.81 -136.47,-67.26 -281.57,-108.07 -434.39,-108.07l-1246.59 0 0 4101.15 -283.17 0 0 -4381.17 1456.61 0c162.95,0 322.36,28.28 475.58,83.95 148.22,53.85 287.87,126.18 416.95,214.77 173.35,114.4 326.32,255.39 442.21,428.58 107.21,160.22 187.12,335.83 233.28,523.17 45.45,184.49 57.87,371.68 38.04,560.65 -19.83,189.03 -68.78,372.12 -150.15,544.05 -82.84,175.05 -192.14,334.44 -326.54,473.94 -143.72,149.17 -313.28,264.18 -502.54,347.75zm2420.44 -3212.71l0 4417.02 -269.24 0 0 -4417.02 269.24 0z"/>
  </g>
  <path class="fil0" d="M5442.1 21949.14c-155.02,-23.9 -303.07,-71.71 -444.15,-141.71 -141.08,-70 -269.97,-155.37 -386.67,-257.81 -116.69,-102.44 -217.72,-218.55 -301.32,-350.02 -85.34,-131.47 -148.05,-268.06 -188.1,-413.2 -5.22,-3.41 -8.72,-15.36 -12.21,-35.85 -5.22,-18.78 -8.69,-40.97 -12.17,-66.59 -5.24,-23.9 -8.72,-46.09 -12.21,-68.29 -5.22,-22.2 -8.7,-37.56 -12.19,-46.09 0,-11.96 -1.75,-29.03 -5.22,-51.22 -5.22,-22.21 -6.98,-35.87 -6.98,-44.4l0 -2842.8 146.32 0 0 2759.14c0,131.47 24.37,268.06 74.9,408.06 48.77,141.71 114.95,266.36 196.82,373.92 106.25,145.13 229.9,264.65 370.98,361.97 141.07,97.31 290.87,169.03 449.37,216.84 156.76,47.8 318.75,70 484.19,68.3 165.48,-1.72 327.45,-27.33 482.47,-80.25 155.02,-52.93 303.07,-131.48 440.67,-235.62 137.59,-104.15 254.29,-233.92 351.82,-390.99 78.39,-128.07 135.86,-257.83 172.43,-385.88 8.72,-32.44 20.93,-78.54 36.6,-138.29 15.66,-59.77 24.38,-93.92 24.38,-102.45l0 -2854.75 148.05 0 0 2783.03c0,80.25 -10.46,158.8 -29.61,239.05 -20.9,80.24 -43.56,157.08 -67.94,230.49 -69.66,192.94 -170.69,361.97 -301.32,508.8 -130.62,146.84 -282.16,268.06 -451.12,361.97 -170.69,93.9 -353.56,158.79 -550.38,192.93 -196.81,34.15 -397.11,34.15 -597.41,1.71zm5223.96 -1186.63l-12.19 0c-73.15,11.95 -148.05,25.6 -222.95,39.26 -76.64,15.37 -153.27,22.21 -231.66,22.21l0 -145.14c259.54,-15.36 494.66,-80.25 705.41,-192.93 210.76,-112.69 381.45,-259.53 512.08,-440.5 130.63,-179.28 214.25,-385.87 249.08,-616.38 34.83,-230.5 6.95,-471.24 -83.61,-720.52 -81.87,-213.42 -210.74,-397.81 -383.19,-556.61 -174.17,-158.78 -372.73,-268.05 -593.93,-327.81 -12.21,0 -38.32,-6.83 -78.39,-18.78 -41.8,-11.96 -69.66,-17.08 -81.85,-17.08 -8.72,0 -22.66,-1.7 -41.8,-6.84 -20.91,-3.41 -34.85,-5.11 -43.54,-5.11l-1320.25 0 0 4101.15 -160.24 0 0 -4258.23 1395.13 0c158.51,0 317,29.03 475.49,87.08 158.52,58.04 297.85,133.17 421.52,225.37 182.88,133.17 329.18,295.38 438.9,484.9 108,191.22 175.93,392.7 202.06,602.71 26.13,210.01 12.19,421.73 -45.3,635.14 -57.46,213.43 -160.23,406.36 -308.28,578.82 -85.34,104.15 -181.15,194.63 -287.38,268.06 -106.25,73.41 -221.21,141.71 -344.87,201.46l0 11.96 891.77 1162.73 -184.62 0 -867.39 -1114.92zm3966.42 -3143.31c155,0 306.54,27.31 454.59,80.25 148.05,54.64 282.16,124.64 404.08,208.3 175.91,116.1 318.73,252.69 424.98,411.47 106.26,158.8 181.15,327.83 224.68,503.69 43.55,177.57 55.76,356.84 36.6,539.53 -19.17,182.7 -66.2,358.55 -144.58,524.17 -78.37,165.62 -182.88,319.29 -315.25,457.58 -134.12,138.3 -294.36,250.99 -484.2,334.65 -97.54,47.81 -207.27,87.08 -327.45,116.11 -120.18,30.73 -236.89,40.97 -348.37,29.03l0 -145.14c308.29,-20.48 576.53,-105.85 808.18,-254.4 231.66,-148.54 414.53,-360.25 550.39,-636.86 57.49,-112.68 92.32,-230.49 104.51,-353.43 12.19,-121.22 13.92,-247.56 5.23,-375.62 -8.71,-148.55 -52.25,-300.51 -130.64,-452.46 -80.12,-151.96 -182.87,-290.26 -306.55,-414.89 -125.39,-124.65 -266.47,-223.68 -421.49,-300.5 -156.76,-76.84 -310.03,-114.4 -461.56,-114.4l-1308.06 0 0 4101.15 -160.23 0 0 -4258.23 1395.14 0zm2985.8 -35.85l0 4294.08 -146.3 0 0 -4294.08 146.3 0z"/>
 </g>
</svg>
