<?xml version="1.0" encoding="UTF-8"?>
<!DOCTYPE svg PUBLIC "-//W3C//DTD SVG 1.1//EN" "http://www.w3.org/Graphics/SVG/1.1/DTD/svg11.dtd">
<!-- Creator: CorelDRAW 2018 (64 Bit) -->
<svg xmlns="http://www.w3.org/2000/svg" xml:space="preserve" width="101.6mm" height="101.6mm" version="1.1" style="shape-rendering:geometricPrecision; text-rendering:geometricPrecision; image-rendering:optimizeQuality; fill-rule:evenodd; clip-rule:evenodd"
viewBox="0 0 10160 10160"
 xmlns:xlink="http://www.w3.org/1999/xlink"
 enable-background="new 20 0 57.6 19.5">
 <defs>
  <style type="text/css">
   <![CDATA[
    .fil0 {fill:#C57E6F;fill-rule:nonzero}
   ]]>
  </style>
 </defs>
 <g id="Capa_x0020_1">
  <metadata id="CorelCorpID_0Corel-Layer"/>
  <g id="_2090470148848">
   <path class="fil0" d="M7476.9 3105.45c0,104.89 -86.7,189.87 -193.68,189.87 -106.98,0 -193.7,-84.98 -193.7,-189.87 0,-104.87 86.72,-189.85 193.7,-189.85 106.98,0 193.68,84.98 193.68,189.85z"/>
   <path class="fil0" d="M6409.26 4145.33c-96.28,0 -174.38,76.51 -174.38,170.92l0 94.7c-0.52,310.1 -81.64,546.77 -248.07,723.34 -163.39,173.31 -373.56,257.53 -642.6,257.53 -276.34,0 -496.82,-86.62 -674.04,-264.79 -178.44,-179.34 -265.16,-414.59 -265.16,-719.15l0 -2568.59c-1.75,-723.15 -603.32,-1311.49 -1341.05,-1311.49 -8.48,0 -16.88,0.21 -25.27,0.5l-178.52 4.33c0,304.58 348.66,347.29 348.66,347.29 477.67,68.87 846.35,473.23 847.51,960.16l0 2567.8c0,392.61 122.54,714.84 364.19,957.77 242.9,244.14 553.64,367.93 923.68,367.93 366.51,0 668.88,-123.59 898.68,-367.38 210.82,-223.62 324.58,-519.15 339.02,-879.07l1.7 0 0 -79.25 0 -60.71 0 -30.92c0,-94.41 -78.07,-170.92 -174.35,-170.92z"/>
   <path class="fil0" d="M6409.26 4145.33c-96.28,0 -174.38,76.51 -174.38,170.92l0 94.7c-0.52,310.1 -81.64,546.77 -248.07,723.34 -163.39,173.31 -373.56,257.53 -642.6,257.53 -276.34,0 -496.82,-86.62 -674.04,-264.79 -178.44,-179.34 -265.16,-414.59 -265.16,-719.15l0 -2568.59c-1.75,-723.15 -603.32,-1311.49 -1341.05,-1311.49 -8.48,0 -16.88,0.21 -25.27,0.5l-178.52 4.33c0,304.58 348.66,347.29 348.66,347.29 477.67,68.87 846.35,473.23 847.51,960.16l0 2567.8c0,392.61 122.54,714.84 364.19,957.77 242.9,244.14 553.64,367.93 923.68,367.93 366.51,0 668.88,-123.59 898.68,-367.38 210.82,-223.62 324.58,-519.15 339.02,-879.07l1.7 0 0 -79.25 0 -60.71 0 -30.92c0,-94.41 -78.07,-170.92 -174.35,-170.92z"/>
   <path class="fil0" d="M7879.93 2051.92c-10.09,-0.35 -20.19,-0.64 -30.32,-0.64 -657.24,0 -1243.49,385.17 -1493.61,981.22 -72.88,173.71 -112.81,356.45 -119.62,543.92l-1.48 0 0 170.94c0,94.38 78.06,170.91 174.37,170.91 96.26,0 174.32,-76.53 174.32,-170.91l0 -113.29c0,-162.88 31.93,-321.57 94.85,-471.57 178.45,-425.27 575.04,-713.62 1033.22,-762.18l0 2007.57c0,210.9 -21.8,412.72 -64.73,599.76 -47.85,208.25 -123.04,402.75 -223.57,578.09 -189.27,330.05 -463.72,587.92 -815.74,766.44 -358.04,181.53 -785.87,273.55 -1271.49,273.55 -486.01,0 -916.83,-92.16 -1280.41,-274 -357.59,-178.75 -637.49,-437.05 -831.95,-767.67 -196.01,-332.93 -295.38,-728.66 -295.38,-1176.17l0 -3080.45 0.24 0c0.55,-53.66 -11.65,-348.42 -348.87,-348.42l-0.03 3428.87c0,508.29 115.08,961.47 342.01,1346.94 228.71,388.81 556.94,692.08 975.55,901.38 413.11,206.57 897.22,311.32 1438.84,311.32 541.92,0 1023.62,-104.91 1431.68,-311.79 413.47,-209.65 736.3,-513.35 959.51,-902.57 117.06,-204.27 204.47,-429.87 259.74,-670.47 48.56,-211.66 73.23,-438.71 73.23,-674.81l0 -2351.35 -180.36 -4.62z"/>
   <path class="fil0" d="M7879.93 2051.92c-10.09,-0.35 -20.19,-0.64 -30.32,-0.64 -657.24,0 -1243.49,385.17 -1493.61,981.22 -72.88,173.71 -112.81,356.45 -119.62,543.92l-1.48 0 0 170.94c0,94.38 78.06,170.91 174.37,170.91 96.26,0 174.32,-76.53 174.32,-170.91l0 -113.29c0,-162.88 31.93,-321.57 94.85,-471.57 178.45,-425.27 575.04,-713.62 1033.22,-762.18l0 2007.57c0,210.9 -21.8,412.72 -64.73,599.76 -47.85,208.25 -123.04,402.75 -223.57,578.09 -189.27,330.05 -463.72,587.92 -815.74,766.44 -358.04,181.53 -785.87,273.55 -1271.49,273.55 -486.01,0 -916.83,-92.16 -1280.41,-274 -357.59,-178.75 -637.49,-437.05 -831.95,-767.67 -196.01,-332.93 -295.38,-728.66 -295.38,-1176.17l0 -3080.45 0.24 0c0.55,-53.66 -11.65,-348.42 -348.87,-348.42l-0.03 3428.87c0,508.29 115.08,961.47 342.01,1346.94 228.71,388.81 556.94,692.08 975.55,901.38 413.11,206.57 897.22,311.32 1438.84,311.32 541.92,0 1023.62,-104.91 1431.68,-311.79 413.47,-209.65 736.3,-513.35 959.51,-902.57 117.06,-204.27 204.47,-429.87 259.74,-670.47 48.56,-211.66 73.23,-438.71 73.23,-674.81l0 -2351.35 -180.36 -4.62z"/>
   <path class="fil0" d="M2379.58 9782.3c-79.59,-12.27 -155.6,-36.81 -228.03,-72.75 -72.43,-35.94 -138.6,-79.77 -198.52,-132.36 -59.91,-52.6 -111.78,-112.21 -154.7,-179.71 -43.81,-67.49 -76.01,-137.62 -96.57,-212.14 -2.68,-1.75 -4.48,-7.88 -6.27,-18.4 -2.68,-9.64 -4.46,-21.04 -6.25,-34.19 -2.69,-12.27 -4.47,-23.66 -6.26,-35.06 -2.68,-11.4 -4.47,-19.28 -6.26,-23.66 0,-6.14 -0.9,-14.91 -2.68,-26.3 -2.68,-11.4 -3.59,-18.41 -3.59,-22.79l0 -1459.51 75.13 0 0 1416.55c0,67.5 12.51,137.63 38.45,209.5 25.04,72.76 59.02,136.76 101.05,191.98 54.55,74.51 118.03,135.87 190.46,185.83 72.43,49.96 149.34,86.79 230.71,111.33 80.48,24.54 163.65,35.94 248.59,35.07 84.95,-0.89 168.11,-14.03 247.7,-41.2 79.59,-27.18 155.6,-67.51 226.24,-120.97 70.64,-53.47 130.56,-120.1 180.63,-200.74 40.24,-65.75 69.75,-132.37 88.52,-198.11 4.48,-16.66 10.75,-40.32 18.8,-71 8.03,-30.69 12.51,-48.22 12.51,-52.6l0 -1465.64 76.01 0 0 1428.82c0,41.2 -5.37,81.53 -15.2,122.73 -10.73,41.2 -22.36,80.65 -34.88,118.33 -35.76,99.06 -87.63,185.84 -154.7,261.23 -67.06,75.38 -144.86,137.62 -231.61,185.83 -87.63,48.21 -181.52,81.53 -282.57,99.05 -101.04,17.54 -203.87,17.54 -306.71,0.88zm2682.01 -609.22l-6.26 0c-37.55,6.13 -76.01,13.14 -114.46,20.16 -39.35,7.89 -78.69,11.4 -118.94,11.4l0 -74.52c133.25,-7.88 253.96,-41.2 362.16,-99.05 108.21,-57.85 195.84,-133.24 262.91,-226.15 67.07,-92.05 110,-198.11 127.88,-316.46 17.88,-118.34 3.57,-241.93 -42.93,-369.92 -42.03,-109.57 -108.19,-204.23 -196.73,-285.76 -89.42,-81.52 -191.36,-137.62 -304.93,-168.3 -6.27,0 -19.67,-3.51 -40.24,-9.64 -21.46,-6.14 -35.77,-8.77 -42.02,-8.77 -4.48,0 -11.64,-0.88 -21.46,-3.51 -10.74,-1.76 -17.9,-2.63 -22.36,-2.63l-677.82 0 0 2105.56 -82.27 0 0 -2186.2 716.27 0c81.38,0 162.75,14.9 244.12,44.7 81.38,29.8 152.91,68.37 216.41,115.71 93.89,68.37 169,151.65 225.33,248.95 55.45,98.17 90.32,201.61 103.74,309.43 13.41,107.83 6.26,216.52 -23.26,326.09 -29.5,109.58 -82.26,208.63 -158.27,297.17 -43.81,53.47 -93,99.92 -147.54,137.62 -54.55,37.69 -113.57,72.76 -177.06,103.43l0 6.14 457.84 596.96 -94.79 0 -445.32 -572.41zm2036.38 -1613.79c79.58,0 157.38,14.02 233.39,41.2 76.01,28.05 144.87,63.99 207.46,106.94 90.31,59.61 163.64,129.73 218.19,211.25 54.55,81.53 93,168.31 115.35,258.6 22.36,91.16 28.63,183.2 18.79,277 -9.84,93.79 -33.99,184.08 -74.23,269.11 -40.23,85.03 -93.89,163.92 -161.85,234.92 -68.86,71.01 -151.13,128.86 -248.59,171.81 -50.08,24.55 -106.41,44.71 -168.12,59.61 -61.7,15.78 -121.62,21.04 -178.85,14.91l0 -74.52c158.28,-10.51 295.99,-54.34 414.92,-130.61 118.94,-76.26 212.83,-184.95 282.58,-326.97 29.51,-57.85 47.39,-118.33 53.65,-181.45 6.26,-62.23 7.15,-127.1 2.69,-192.84 -4.47,-76.27 -26.83,-154.29 -67.07,-232.3 -41.14,-78.02 -93.89,-149.02 -157.39,-213.01 -64.37,-63.99 -136.81,-114.83 -216.39,-154.27 -80.48,-39.45 -159.17,-58.74 -236.97,-58.74l-671.57 0 0 2105.56 -82.26 0 0 -2186.2 716.27 0zm1532.93 -18.41l0 2204.61 -75.11 0 0 -2204.61 75.11 0z"/>
  </g>
 </g>
</svg>
